Coordinates
version=1
nRows=30
nColumns=38
inDegrees=no

Units are S.I. units (second, meters, Newtons, ...)
If the header above contains a line with 'inDegrees', this indicates whether rotational values are in degrees (yes) or radians (no).

endheader
time	pelvis_tilt	pelvis_list	pelvis_rotation	pelvis_tx	pelvis_ty	pelvis_tz	hip_flexion_r	hip_adduction_r	hip_rotation_r	knee_angle_r	ankle_angle_r	subtalar_angle_r	mtp_angle_r	hip_flexion_l	hip_adduction_l	hip_rotation_l	knee_angle_l	ankle_angle_l	subtalar_angle_l	mtp_angle_l	lumbar_extension	lumbar_bending	lumbar_rotation	arm_flex_r	arm_add_r	arm_rot_r	elbow_flex_r	pro_sup_r	wrist_flex_r	wrist_dev_r	arm_flex_l	arm_add_l	arm_rot_l	elbow_flex_l	pro_sup_l	wrist_flex_l	wrist_dev_l
0	0.381204	1.52645	-1.92145	0.764654	1.20947	1.04561	0.443811	-0.042824	-0.0922742	0.532591	-0.118066	0	0	-0.199699	0.0648279	-0.238065	0.290691	-0.0996417	0	0	-0.169753	0.0646638	-0.107037	-0.195006	-0.15636	-0.253097	0.424407	0.532914	0	0	0.0726596	-0.733529	0.651931	0.882635	1.29931	0	0
0.01	0.441219	1.53146	-1.97612	0.764902	1.20024	1.04377	0.451255	-0.0446428	-0.105525	0.497103	-0.118701	0	0	-0.204394	0.0650536	-0.225844	0.287447	-0.0956676	0	0	-0.16571	0.0652722	-0.118376	-0.19707	-0.175756	-0.155603	0.435976	0.433584	0	0	0.0689028	-0.73864	0.628838	0.895458	1.30173	0	0
0.02	0.467691	1.53565	-1.99736	0.765102	1.19019	1.042	0.455939	-0.0452092	-0.118775	0.466525	-0.116051	0	0	-0.210356	0.0626609	-0.220658	0.287425	-0.0921175	0	0	-0.16155	0.0674763	-0.123177	-0.198367	-0.17707	-0.148673	0.441269	0.424237	0	0	0.0754987	-0.743061	0.625701	0.903996	1.29877	0	0
0.03	0.458205	1.53862	-1.98228	0.765261	1.17991	1.04036	0.458009	-0.0444822	-0.128961	0.441181	-0.111032	0	0	-0.217407	0.0586399	-0.218496	0.289924	-0.0881484	0	0	-0.159275	0.070486	-0.128247	-0.199383	-0.178275	-0.142881	0.446193	0.41509	0	0	0.0805517	-0.746964	0.621007	0.913012	1.2985	0	0
0.04	0.424602	1.54047	-1.94249	0.765461	1.16953	1.03888	0.458026	-0.0431246	-0.135377	0.420804	-0.104604	0	0	-0.225179	0.0539145	-0.217663	0.29396	-0.084574	0	0	-0.158524	0.0737751	-0.133559	-0.19991	-0.179354	-0.137745	0.450373	0.406727	0	0	0.0843346	-0.749792	0.613942	0.922246	1.30284	0	0
0.05	0.370392	1.54109	-1.88107	0.765813	1.1591	1.03759	0.456286	-0.0417605	-0.140146	0.406436	-0.0988179	0	0	-0.233744	0.0487665	-0.21689	0.299037	-0.081659	0	0	-0.159455	0.0776459	-0.139712	-0.200161	-0.180628	-0.133077	0.454602	0.399373	0	0	0.0862544	-0.751116	0.603124	0.931281	1.31089	0	0
0.06	0.31364	1.54116	-1.81757	0.766099	1.1485	1.03642	0.453769	-0.0400704	-0.142435	0.397931	-0.0939224	0	0	-0.242521	0.0435573	-0.217921	0.304966	-0.0793543	0	0	-0.161138	0.0816281	-0.146307	-0.200067	-0.182169	-0.127845	0.458916	0.391205	0	0	0.0834447	-0.750759	0.584668	0.940655	1.32452	0	0
0.07	0.260955	1.54119	-1.75865	0.766254	1.13773	1.0353	0.45075	-0.0380715	-0.142143	0.394472	-0.0895057	0	0	-0.250861	0.0382062	-0.220493	0.312029	-0.077611	0	0	-0.163737	0.0854676	-0.15673	-0.197473	-0.185431	-0.113552	0.462538	0.377542	0	0	0.0669449	-0.747328	0.542407	0.953417	1.35547	0	0
0.08	0.213299	1.54157	-1.70505	0.766344	1.12682	1.03419	0.447356	-0.035713	-0.13972	0.395474	-0.08676	0	0	-0.258315	0.0327115	-0.223405	0.320146	-0.0766955	0	0	-0.164275	0.088993	-0.162883	-0.19744	-0.186689	-0.108973	0.465189	0.371705	0	0	0.0627415	-0.746972	0.528304	0.96218	1.37167	0	0
0.09	0.164708	1.54246	-1.65117	0.766321	1.1157	1.03305	0.444585	-0.0328941	-0.136594	0.402865	-0.0846609	0	0	-0.264697	0.0270068	-0.227295	0.329022	-0.0762573	0	0	-0.164547	0.0926402	-0.170256	-0.197322	-0.188633	-0.102344	0.468559	0.364658	0	0	0.0518314	-0.745105	0.504826	0.972261	1.39343	0	0
0.1	0.111258	1.54417	-1.59279	0.766208	1.10435	1.03189	0.442708	-0.0295255	-0.133261	0.416295	-0.0843632	0	0	-0.269561	0.0209755	-0.230891	0.339155	-0.0764785	0	0	-0.162658	0.0963855	-0.175883	-0.198811	-0.18983	-0.100344	0.471353	0.360582	0	0	0.044188	-0.743828	0.491784	0.979797	1.40331	0	0
0.11	0.0431873	1.54626	-1.51996	0.766017	1.09272	1.03074	0.440447	-0.0251569	-0.129657	0.433906	-0.0839968	0	0	-0.273514	0.0143806	-0.2339	0.350574	-0.0773484	0	0	-0.159869	0.10042	-0.181781	-0.201229	-0.191252	-0.098857	0.474568	0.357025	0	0	0.0339629	-0.742108	0.477855	0.987505	1.40934	0	0
0.12	-0.0523914	1.54844	-1.41977	0.765756	1.08085	1.02961	0.437142	-0.0194876	-0.125424	0.453348	-0.0846501	0	0	-0.27656	0.00715784	-0.236418	0.363593	-0.0787169	0	0	-0.156409	0.104868	-0.187758	-0.204385	-0.193044	-0.0974056	0.478087	0.35453	0	0	0.0218642	-0.739859	0.46395	0.995078	1.41112	0	0
0.13	-0.192727	1.55018	-1.27521	0.765397	1.06875	1.02861	0.433521	-0.013177	-0.121614	0.471879	-0.0887575	0	0	-0.278974	-0.000916388	-0.238704	0.378125	-0.0808983	0	0	-0.152596	0.110058	-0.19353	-0.207541	-0.19519	-0.0960816	0.480952	0.352964	0	0	0.0087872	-0.736933	0.451234	1.00159	1.40943	0	0
0.14	-0.398647	1.55059	-1.0662	0.764869	1.05654	1.02793	0.431032	-0.0069954	-0.118263	0.485032	-0.0955238	0	0	-0.280858	-0.010026	-0.239961	0.394557	-0.083684	0	0	-0.148935	0.116586	-0.196793	-0.21004	-0.197257	-0.0961928	0.481421	0.35216	0	0	-0.00136471	-0.732918	0.444129	1.00482	1.40626	0	0
0.15	-0.629443	1.54873	-0.833807	0.764307	1.04433	1.02774	0.429422	-0.000600288	-0.115025	0.491708	-0.104229	0	0	-0.281991	-0.0199704	-0.240719	0.414043	-0.0879891	0	0	-0.14644	0.125135	-0.19915	-0.211061	-0.200122	-0.0962793	0.480807	0.351554	0	0	-0.011435	-0.727053	0.438177	1.00539	1.40162	0	0
0.16	-0.797335	1.54431	-0.666009	0.763805	1.03211	1.0281	0.425729	0.00798337	-0.110668	0.494938	-0.114584	0	0	-0.28303	-0.0300554	-0.241301	0.436567	-0.0939696	0	0	-0.145914	0.135157	-0.199524	-0.211119	-0.20378	-0.0962487	0.479094	0.350896	0	0	-0.0204532	-0.719246	0.434037	1.00362	1.397	0	0
0.17	-0.893493	1.53881	-0.572485	0.76324	1.01979	1.02888	0.420412	0.0184309	-0.103096	0.501323	-0.133053	0	0	-0.283499	-0.0392775	-0.243771	0.462425	-0.102643	0	0	-0.146782	0.145338	-0.197129	-0.211171	-0.208163	-0.0952627	0.476973	0.350219	0	0	-0.0296003	-0.709526	0.42986	1.00024	1.39152	0	0
0.18	-0.94952	1.53429	-0.521443	0.762497	1.00736	1.02982	0.415854	0.0284331	-0.0922302	0.513837	-0.155272	0	0	-0.281733	-0.0461213	-0.246333	0.492198	-0.112849	0	0	-0.147605	0.153737	-0.192311	-0.2117	-0.212641	-0.0934694	0.47449	0.348554	0	0	-0.0397286	-0.698992	0.425233	0.996396	1.38636	0	0
0.19	-0.98543	1.53136	-0.491914	0.76153	0.994865	1.03079	0.412346	0.0371022	-0.0798056	0.529017	-0.168777	0	0	-0.276643	-0.0506058	-0.2477	0.526486	-0.124425	0	0	-0.147824	0.159692	-0.186766	-0.212539	-0.216455	-0.0922333	0.472022	0.345142	0	0	-0.0514976	-0.689106	0.420672	0.993001	1.38276	0	0
0.2	-1.00807	1.52959	-0.475787	0.760351	0.982403	1.03177	0.408276	0.0442881	-0.0684302	0.542389	-0.173726	0	0	-0.267984	-0.0538695	-0.247022	0.56518	-0.137412	0	0	-0.147798	0.163678	-0.181322	-0.213677	-0.219423	-0.0911351	0.469587	0.341528	0	0	-0.0642283	-0.679766	0.415962	0.9896	1.3801	0	0
0.21	-1.02305	1.52842	-0.465789	0.759182	0.970114	1.03279	0.402642	0.0493101	-0.0611919	0.554066	-0.17373	0	0	-0.255356	-0.0567641	-0.242488	0.608454	-0.15296	0	0	-0.147763	0.166711	-0.177304	-0.214895	-0.221842	-0.0899537	0.467269	0.337661	0	0	-0.0769545	-0.671155	0.412409	0.986325	1.378	0	0
0.22	-1.04001	1.52698	-0.452362	0.758016	0.957939	1.0339	0.394655	0.053406	-0.0593871	0.562478	-0.170959	0	0	-0.239179	-0.0603118	-0.235354	0.655667	-0.170872	0	0	-0.147626	0.169963	-0.174351	-0.216243	-0.223857	-0.0892483	0.465143	0.333169	0	0	-0.089406	-0.662223	0.409397	0.982153	1.37656	0	0
0.23	-1.06999	1.52525	-0.425381	0.756811	0.945839	1.03504	0.385028	0.0577107	-0.0624326	0.565708	-0.166668	0	0	-0.219553	-0.0644595	-0.227601	0.705989	-0.190869	0	0	-0.14682	0.173708	-0.17133	-0.217992	-0.225849	-0.0884453	0.463311	0.329019	0	0	-0.101511	-0.652357	0.406519	0.976619	1.37619	0	0
0.24	-1.10535	1.52297	-0.391224	0.755829	0.934093	1.03617	0.374729	0.0616292	-0.070657	0.565247	-0.163912	0	0	-0.196463	-0.0689598	-0.217207	0.759546	-0.21058	0	0	-0.14642	0.178403	-0.169324	-0.219805	-0.227991	-0.0879452	0.463028	0.324965	0	0	-0.112259	-0.642668	0.405292	0.97112	1.37688	0	0
0.25	-1.14981	1.52039	-0.346404	0.755077	0.922795	1.03719	0.36482	0.0656116	-0.081099	0.563971	-0.161577	0	0	-0.169876	-0.0732862	-0.203848	0.81567	-0.226551	0	0	-0.146288	0.183762	-0.168139	-0.221689	-0.23036	-0.0876842	0.464587	0.321187	0	0	-0.121436	-0.633757	0.40638	0.966477	1.37841	0	0
0.26	-1.19678	1.51789	-0.298646	0.754359	0.911814	1.03811	0.354985	0.070307	-0.0896374	0.562717	-0.157169	0	0	-0.141113	-0.0772327	-0.190118	0.872325	-0.235038	0	0	-0.146212	0.188862	-0.166974	-0.22339	-0.232459	-0.0884318	0.467099	0.317385	0	0	-0.129887	-0.625548	0.408817	0.962232	1.37982	0	0
0.27	-1.24785	1.51621	-0.247656	0.75348	0.90097	1.03891	0.345628	0.0753952	-0.093283	0.561831	-0.149989	0	0	-0.111211	-0.0806868	-0.17933	0.927634	-0.231634	0	0	-0.145245	0.192714	-0.164646	-0.225023	-0.234221	-0.0897523	0.469379	0.313074	0	0	-0.137913	-0.617301	0.411929	0.956904	1.37979	0	0
0.28	-1.27963	1.51522	-0.216526	0.752587	0.890377	1.03978	0.335844	0.0796364	-0.0929064	0.561792	-0.14167	0	0	-0.0819241	-0.0829798	-0.171452	0.980511	-0.214377	0	0	-0.145329	0.195238	-0.161246	-0.225927	-0.235923	-0.0905776	0.471043	0.309228	0	0	-0.144188	-0.609651	0.417725	0.950783	1.37841	0	0
0.29	-1.26394	1.51485	-0.233973	0.751699	0.880041	1.04097	0.323625	0.0828795	-0.0897405	0.561628	-0.134364	0	0	-0.0555115	-0.0833791	-0.167571	1.02883	-0.191515	0	0	-0.148807	0.196109	-0.156317	-0.225393	-0.237312	-0.0912063	0.471887	0.305571	0	0	-0.148892	-0.602198	0.424738	0.944073	1.37577	0	0
